<svg xmlns="http://www.w3.org/2000/svg" viewBox="0 0 401.325 66.888"><defs><linearGradient id="a" x1="39.704" y1="66.888" x2="39.704" gradientUnits="userSpaceOnUse"><stop offset="0" stop-color="#009444"/><stop offset="1" stop-color="#8dc63f"/></linearGradient></defs><path d="M52.015 13.655A3.814 3.814 0 0 0 49.891 17v31.622l-8.047 3.366a4.587 4.587 0 0 1-4.279 0l-8.048-3.366V17.029a3.865 3.865 0 0 0-2.151-3.389L0 0v10.682a15.147 15.147 0 0 0 8.075 13.444l16.26 10.549v22.714a3.617 3.617 0 0 0 2.013 3.171L39.7 66.888l13.3-6.3a3.716 3.716 0 0 0 2.068-3.257V34.675l16.22-10.527a15.23 15.23 0 0 0 8.121-13.519V0z" fill="url(#a)"/><path d="M132.558 43.585c-.063 8.355-6.186 12.627-12.053 12.627-6.123 0-11.991-3.635-11.991-10.9V21.581c0-7.271 5.8-10.906 11.927-10.906 5.931 0 11.99 4.274 12.117 12.693h-5.421c0-4.848-3.252-7.4-6.632-7.4-3.445 0-6.761 1.977-6.761 5.612v23.727c.064 3.636 3.38 5.613 6.761 5.613s6.632-2.552 6.632-7.335zm26.492-7.015v19.26h-5.294V36.442c-1.339-3.189-2.678-6.378-4.145-9.759-2.041-4.591-4.783-11.1-6.569-15.5h5.612c1.85 4.208 5.548 14.031 7.207 18.177l.574 3.443c.064-.51.382-2.934.51-3.507 1.467-3.572 5.74-14.8 7.143-18.113h5.74zm42.562-4.721c4.21.639 6.251 5.166 6.251 8.228v5.293a11 11 0 0 1-10.4 10.524h-9.7c-2.551 0-4.081-1.595-4.081-4.209V15.331a3.834 3.834 0 0 1 4.081-4.145h8.866a10.587 10.587 0 0 1 10.523 10.587v2.232c.009 2.424-1.713 6.952-5.54 7.844zm-12.691-15.37V29.3h8.418c2.679 0 4.592-2.424 4.592-5.294v-2.233a5.322 5.322 0 0 0-5.293-5.294zm13.648 28.891v-5.293a5.337 5.337 0 0 0-5.23-5.42h-8.418V50.6h8.546a5.456 5.456 0 0 0 5.102-5.23zm41.988-28.891l-14.987.127v13.713h14.349v5.294H229.57v9.566a5.376 5.376 0 0 0 5.293 5.358h9.694v5.293h-9.694a10.826 10.826 0 0 1-10.587-10.651V15.331a4.245 4.245 0 0 1 4.273-4.145h16.008zm20.801-5.356h8.674a10.221 10.221 0 0 1 10.523 10.522v6.633c0 2.742-2.551 7.717-6.7 8.036 4.4.446 6.889 5.23 6.889 8.1V55.83h-5.23V44.414c0-3.061-3.7-5.422-6.633-5.422h-6.5V55.83h-5.166v-40.5a3.966 3.966 0 0 1 4.143-4.207zm1.021 5.292V33.7h6.5c2.87 0 6.441-2.359 6.441-5.421v-6.634a5.227 5.227 0 0 0-5.293-5.23zm58.659 27.17c-.064 8.355-6.186 12.627-12.054 12.627-6.123 0-11.99-3.635-11.99-10.9V21.581c0-7.271 5.8-10.906 11.927-10.906 5.931 0 11.989 4.274 12.117 12.693h-5.421c0-4.848-3.253-7.4-6.633-7.4-3.444 0-6.76 1.977-6.76 5.612v23.727c.064 3.636 3.38 5.613 6.76 5.613s6.633-2.552 6.633-7.335zm32.59-2.997h-10.715c-2.487 9.693-3.316 12.882-3.89 15.242h-5.549l10.588-41.582a4.825 4.825 0 0 1 4.272-3.573 4.756 4.756 0 0 1 4.146 3.445l10.778 41.71h-5.676zm-1.34-5.23l-3.252-15.882-.446-4.336h-.51l-.511 4.336c-1.276 5.1-2.168 10.779-3.38 15.882zm45.037-24.172v5.293h-10.459V55.83h-5.23V16.479h-10.2v-5.293z" fill="#fff"/></svg>